<mxfile host="app.diagrams.net" modified="2023-06-22T16:31:34.598Z" agent="Mozilla/5.0 (Windows NT 10.0; Win64; x64) AppleWebKit/537.36 (KHTML, like Gecko) Chrome/114.0.0.0 Safari/537.36 Edg/114.0.1823.51" version="21.5.0" etag="8ZxGXYgMqMW-6CpQ2zRL" type="github">
  <diagram name="PÃ¡gina-1" id="YvwJjjqSAecZRgfmG4eg">
    <mxGraphModel>
      <root>
        <mxCell id="0" />
        <mxCell id="1" parent="0" />
      </root>
    </mxGraphModel>
  </diagram>
</mxfile>
